<?xml version="1.0" encoding="UTF-8" standalone="no"?>
<!-- Created with Inkscape (http://www.inkscape.org/) -->

<svg
   xmlns:dc="http://purl.org/dc/elements/1.1/"
   xmlns:cc="http://creativecommons.org/ns#"
   xmlns:rdf="http://www.w3.org/1999/02/22-rdf-syntax-ns#"
   xmlns:svg="http://www.w3.org/2000/svg"
   xmlns="http://www.w3.org/2000/svg"
   xmlns:sodipodi="http://sodipodi.sourceforge.net/DTD/sodipodi-0.dtd"
   xmlns:inkscape="http://www.inkscape.org/namespaces/inkscape"
   width="744.09448819"
   height="1052.3622047"
   id="svg3092"
   version="1.1"
   inkscape:version="0.91 r13725"
   sodipodi:docname="close.svgz">
  <defs
     id="defs3094" />
  <sodipodi:namedview
     id="base"
     pagecolor="#ffffff"
     bordercolor="#ffffff"
     borderopacity="0.0"
     inkscape:pageopacity="0.0"
     inkscape:pageshadow="0"
     inkscape:zoom="8.32"
     inkscape:cx="19.161677"
     inkscape:cy="32.97059"
     inkscape:document-units="px"
     inkscape:current-layer="layer1"
     showgrid="false"
     inkscape:window-width="1029"
     inkscape:window-height="898"
     inkscape:window-x="2119"
     inkscape:window-y="235"
     inkscape:window-maximized="0" />
  <metadata
     id="metadata3097">
    <rdf:RDF>
      <cc:Work
         rdf:about="">
        <dc:format>image/svg+xml</dc:format>
        <dc:type
           rdf:resource="http://purl.org/dc/dcmitype/StillImage" />
        <dc:title />
      </cc:Work>
    </rdf:RDF>
  </metadata>
  <g
     inkscape:label="Layer 1"
     inkscape:groupmode="layer"
     id="layer1">
    <rect
       y="1033.2704"
       x="-6.1421399"
       height="4.375"
       width="5"
       id="hint-stretch-borders"
       style="opacity:0.875;fill:#008000;fill-opacity:1;stroke:none;display:inline" />
    <rect
       style="display:inline;opacity:0.875;fill:#008000;fill-opacity:1;stroke:none"
       id="hint-apply-color-scheme-not"
       width="5"
       height="4.375"
       x="-7.7964969"
       y="1041.8882"
       inkscape:label="#rect3178" />
    <g
       id="active-center">
      <path
         sodipodi:type="arc"
         style="fill:none;stroke:#000000;stroke-width:8.84792614;stroke-miterlimit:4;stroke-opacity:1;stroke-dasharray:none"
         id="path3024"
         sodipodi:cx="-65.714287"
         sodipodi:cy="472.36218"
         sodipodi:rx="68.571426"
         sodipodi:ry="68.571426"
         d="m 2.8571396,472.36218 a 68.571426,68.571426 0 1 1 -137.1428496,0 68.571426,68.571426 0 1 1 137.1428496,0 z"
         transform="matrix(0.11302084,0,0,0.11302084,15.42708,990.97541)" />
      <path
         inkscape:connector-curvature="0"
         id="path3141"
         d="m 12,1040.3622 -8.0000002,8"
         style="fill:none;stroke:#000000;stroke-width:1;stroke-linecap:butt;stroke-linejoin:miter;stroke-miterlimit:4;stroke-opacity:1;stroke-dasharray:none" />
      <path
         inkscape:connector-curvature="0"
         id="path3141-7"
         d="m 3.9999998,1040.3622 8.0000002,8"
         style="fill:none;stroke:#000000;stroke-width:1;stroke-linecap:butt;stroke-linejoin:miter;stroke-miterlimit:4;stroke-opacity:1;stroke-dasharray:none" />
    </g>
    <g
       id="inactive-center"
       transform="translate(18,0)">
      <path
         sodipodi:type="arc"
         style="fill:none;stroke:#787878;stroke-width:8.84792614000000022;stroke-miterlimit:4;stroke-opacity:1;stroke-dasharray:none"
         id="path3024-3"
         sodipodi:cx="-65.714287"
         sodipodi:cy="472.36218"
         sodipodi:rx="68.571426"
         sodipodi:ry="68.571426"
         d="m 2.8571396,472.36218 a 68.571426,68.571426 0 0 1 -68.5714266,68.57143 68.571426,68.571426 0 0 1 -68.571423,-68.57143 68.571426,68.571426 0 0 1 68.571423,-68.57142 68.571426,68.571426 0 0 1 68.5714266,68.57142 z"
         transform="matrix(0.11302084,0,0,0.11302084,15.42708,990.97541)" />
      <path
         inkscape:connector-curvature="0"
         id="path3141-5"
         d="m 12,1040.3622 -8.0000002,8"
         style="fill:none;stroke:#787878;stroke-width:1;stroke-linecap:butt;stroke-linejoin:miter;stroke-miterlimit:4;stroke-opacity:1;stroke-dasharray:none" />
      <path
         inkscape:connector-curvature="0"
         id="path3141-7-8"
         d="m 3.9999998,1040.3622 8.0000002,8"
         style="fill:none;stroke:#787878;stroke-width:1;stroke-linecap:butt;stroke-linejoin:miter;stroke-miterlimit:4;stroke-opacity:1;stroke-dasharray:none" />
    </g>
    <g
       id="hover-center"
       transform="translate(0,-18)">
      <path
         sodipodi:type="arc"
         style="fill:#00ffff;stroke:#000000;stroke-width:8.84792614000000022;stroke-miterlimit:4;stroke-opacity:1;stroke-dasharray:none;fill-opacity:1"
         id="path3024-2"
         sodipodi:cx="-65.714287"
         sodipodi:cy="472.36218"
         sodipodi:rx="68.571426"
         sodipodi:ry="68.571426"
         d="m 2.8571396,472.36218 a 68.571426,68.571426 0 0 1 -68.5714266,68.57143 68.571426,68.571426 0 0 1 -68.571423,-68.57143 68.571426,68.571426 0 0 1 68.571423,-68.57142 68.571426,68.571426 0 0 1 68.5714266,68.57142 z"
         transform="matrix(0.11302084,0,0,0.11302084,15.42708,990.97541)" />
      <path
         inkscape:connector-curvature="0"
         id="path3141-1"
         d="m 12,1040.3622 -8.0000002,8"
         style="fill:none;stroke:#000000;stroke-width:2;stroke-linecap:butt;stroke-linejoin:miter;stroke-miterlimit:4;stroke-opacity:1;stroke-dasharray:none" />
      <path
         inkscape:connector-curvature="0"
         id="path3141-7-1"
         d="m 3.9999998,1040.3622 8.0000002,8"
         style="fill:none;stroke:#000000;stroke-width:2;stroke-linecap:butt;stroke-linejoin:miter;stroke-miterlimit:4;stroke-opacity:1;stroke-dasharray:none" />
    </g>
    <g
       id="hover-inactive-center"
       transform="translate(18,-18)">
      <path
         sodipodi:type="arc"
         style="fill:#00ffff;stroke:#787878;stroke-width:8.84792614000000022;stroke-miterlimit:4;stroke-opacity:1;stroke-dasharray:none;fill-opacity:1"
         id="path3024-3-1"
         sodipodi:cx="-65.714287"
         sodipodi:cy="472.36218"
         sodipodi:rx="68.571426"
         sodipodi:ry="68.571426"
         d="m 2.8571396,472.36218 a 68.571426,68.571426 0 0 1 -68.5714266,68.57143 68.571426,68.571426 0 0 1 -68.571423,-68.57143 68.571426,68.571426 0 0 1 68.571423,-68.57142 68.571426,68.571426 0 0 1 68.5714266,68.57142 z"
         transform="matrix(0.11302084,0,0,0.11302084,15.42708,990.97541)" />
      <path
         inkscape:connector-curvature="0"
         id="path3141-5-4"
         d="m 12,1040.3622 -8.0000002,8"
         style="fill:none;stroke:#787878;stroke-width:2;stroke-linecap:butt;stroke-linejoin:miter;stroke-miterlimit:4;stroke-opacity:1;stroke-dasharray:none" />
      <path
         inkscape:connector-curvature="0"
         id="path3141-7-8-9"
         d="m 3.9999998,1040.3622 8.0000002,8"
         style="fill:none;stroke:#787878;stroke-width:2;stroke-linecap:butt;stroke-linejoin:miter;stroke-miterlimit:4;stroke-opacity:1;stroke-dasharray:none" />
    </g>
    <g
       id="pressed-center">
      <path
         sodipodi:type="arc"
         style="fill:none;stroke:#000000;stroke-width:8.84792614;stroke-miterlimit:4;stroke-opacity:1;stroke-dasharray:none"
         id="path3024-4"
         sodipodi:cx="-65.714287"
         sodipodi:cy="472.36218"
         sodipodi:rx="68.571426"
         sodipodi:ry="68.571426"
         d="m 2.8571396,472.36218 a 68.571426,68.571426 0 1 1 -137.1428496,0 68.571426,68.571426 0 1 1 137.1428496,0 z"
         transform="matrix(0.11302084,0,0,0.11302084,15.42708,954.97541)" />
      <path
         inkscape:connector-curvature="0"
         id="path3141-6"
         d="m 12,1004.3622 -8.0000002,8"
         style="fill:none;stroke:#000000;stroke-width:2;stroke-linecap:butt;stroke-linejoin:miter;stroke-miterlimit:4;stroke-opacity:1;stroke-dasharray:none" />
      <path
         inkscape:connector-curvature="0"
         id="path3141-7-3"
         d="m 3.9999998,1004.3622 8.0000002,8"
         style="fill:none;stroke:#000000;stroke-width:2;stroke-linecap:butt;stroke-linejoin:miter;stroke-miterlimit:4;stroke-opacity:1;stroke-dasharray:none" />
      <path
         transform="matrix(0.11302084,0,0,0.11302084,15.42708,954.97541)"
         d="m 2.8571396,472.36218 a 68.571426,68.571426 0 1 1 -137.1428496,0 68.571426,68.571426 0 1 1 137.1428496,0 z"
         sodipodi:ry="68.571426"
         sodipodi:rx="68.571426"
         sodipodi:cy="472.36218"
         sodipodi:cx="-65.714287"
         id="path3024-4-5"
         style="opacity:0.25;fill:#000000;fill-opacity:1;stroke:none"
         sodipodi:type="arc" />
    </g>
    <g
       id="pressed-inactive-center">
      <path
         transform="matrix(0.11302084,0,0,0.11302084,33.42708,954.97541)"
         d="m 2.8571396,472.36218 a 68.571426,68.571426 0 1 1 -137.1428496,0 68.571426,68.571426 0 1 1 137.1428496,0 z"
         sodipodi:ry="68.571426"
         sodipodi:rx="68.571426"
         sodipodi:cy="472.36218"
         sodipodi:cx="-65.714287"
         id="path3024-3-4-2"
         style="opacity:0.25;fill:#000000;fill-opacity:1;stroke:none"
         sodipodi:type="arc" />
      <path
         sodipodi:type="arc"
         style="fill:none;stroke:#787878;stroke-width:8.84792614;stroke-miterlimit:4;stroke-opacity:1;stroke-dasharray:none"
         id="path3024-3-4"
         sodipodi:cx="-65.714287"
         sodipodi:cy="472.36218"
         sodipodi:rx="68.571426"
         sodipodi:ry="68.571426"
         d="m 2.8571396,472.36218 a 68.571426,68.571426 0 1 1 -137.1428496,0 68.571426,68.571426 0 1 1 137.1428496,0 z"
         transform="matrix(0.11302084,0,0,0.11302084,33.42708,954.97541)" />
      <path
         inkscape:connector-curvature="0"
         id="path3141-5-8"
         d="m 30,1004.3622 -8,8"
         style="fill:none;stroke:#787878;stroke-width:2;stroke-linecap:butt;stroke-linejoin:miter;stroke-miterlimit:4;stroke-opacity:1;stroke-dasharray:none" />
      <path
         inkscape:connector-curvature="0"
         id="path3141-7-8-7"
         d="m 22,1004.3622 8,8"
         style="fill:none;stroke:#787878;stroke-width:2;stroke-linecap:butt;stroke-linejoin:miter;stroke-miterlimit:4;stroke-opacity:1;stroke-dasharray:none" />
    </g>
    <g
       id="deactivated-center"
       transform="translate(0,-54)">
      <path
         sodipodi:type="arc"
         style="fill:none;stroke:#000000;stroke-width:4.42396287;stroke-miterlimit:4;stroke-opacity:1;stroke-dasharray:none"
         id="path3024-5"
         sodipodi:cx="-65.714287"
         sodipodi:cy="472.36218"
         sodipodi:rx="68.571426"
         sodipodi:ry="68.571426"
         d="m 2.8571396,472.36218 a 68.571426,68.571426 0 0 1 -68.5714266,68.57143 68.571426,68.571426 0 0 1 -68.571423,-68.57143 68.571426,68.571426 0 0 1 68.571423,-68.57142 68.571426,68.571426 0 0 1 68.5714266,68.57142 z"
         transform="matrix(0.11302084,0,0,0.11302084,15.42708,990.97541)" />
      <path
         inkscape:connector-curvature="0"
         id="path3141-12"
         d="m 12,1040.3622 -8.0000002,8"
         style="fill:none;stroke:#000000;stroke-width:0.5;stroke-linecap:butt;stroke-linejoin:miter;stroke-miterlimit:4;stroke-opacity:1;stroke-dasharray:none" />
      <path
         inkscape:connector-curvature="0"
         id="path3141-7-19"
         d="m 3.9999998,1040.3622 8.0000002,8"
         style="fill:none;stroke:#000000;stroke-width:0.5;stroke-linecap:butt;stroke-linejoin:miter;stroke-miterlimit:4;stroke-opacity:1;stroke-dasharray:none" />
    </g>
    <g
       id="deactivated-inactive-center"
       transform="translate(18,-54)">
      <path
         sodipodi:type="arc"
         style="fill:none;stroke:#787878;stroke-width:4.42396287;stroke-miterlimit:4;stroke-opacity:1;stroke-dasharray:none"
         id="path3024-3-5"
         sodipodi:cx="-65.714287"
         sodipodi:cy="472.36218"
         sodipodi:rx="68.571426"
         sodipodi:ry="68.571426"
         d="m 2.8571396,472.36218 a 68.571426,68.571426 0 0 1 -68.5714266,68.57143 68.571426,68.571426 0 0 1 -68.571423,-68.57143 68.571426,68.571426 0 0 1 68.571423,-68.57142 68.571426,68.571426 0 0 1 68.5714266,68.57142 z"
         transform="matrix(0.11302084,0,0,0.11302084,15.42708,990.97541)" />
      <path
         inkscape:connector-curvature="0"
         id="path3141-5-2"
         d="m 12,1040.3622 -8.0000002,8"
         style="fill:none;stroke:#787878;stroke-width:0.5;stroke-linecap:butt;stroke-linejoin:miter;stroke-miterlimit:4;stroke-opacity:1;stroke-dasharray:none" />
      <path
         inkscape:connector-curvature="0"
         id="path3141-7-8-1"
         d="m 3.9999998,1040.3622 8.0000002,8"
         style="fill:none;stroke:#787878;stroke-width:0.5;stroke-linecap:butt;stroke-linejoin:miter;stroke-miterlimit:4;stroke-opacity:1;stroke-dasharray:none" />
    </g>
  </g>
</svg>
