<?xml version="1.0" encoding="UTF-8" standalone="no"?>
<!-- Created with Inkscape (http://www.inkscape.org/) -->

<svg
   xmlns:dc="http://purl.org/dc/elements/1.1/"
   xmlns:cc="http://creativecommons.org/ns#"
   xmlns:rdf="http://www.w3.org/1999/02/22-rdf-syntax-ns#"
   xmlns:svg="http://www.w3.org/2000/svg"
   xmlns="http://www.w3.org/2000/svg"
   xmlns:sodipodi="http://sodipodi.sourceforge.net/DTD/sodipodi-0.dtd"
   xmlns:inkscape="http://www.inkscape.org/namespaces/inkscape"
   width="744.09448819"
   height="1052.3622047"
   id="svg3016"
   version="1.1"
   inkscape:version="0.48.5 r10040"
   sodipodi:docname="restore.svgz">
  <defs
     id="defs3018" />
  <sodipodi:namedview
     id="base"
     pagecolor="#ffffff"
     bordercolor="#ffffff"
     borderopacity="0.0"
     inkscape:pageopacity="0.0"
     inkscape:pageshadow="0"
     inkscape:zoom="8.32"
     inkscape:cx="24.145502"
     inkscape:cy="33.74389"
     inkscape:document-units="px"
     inkscape:current-layer="layer1"
     showgrid="false"
     inkscape:window-width="1114"
     inkscape:window-height="828"
     inkscape:window-x="1719"
     inkscape:window-y="61"
     inkscape:window-maximized="0" />
  <metadata
     id="metadata3021">
    <rdf:RDF>
      <cc:Work
         rdf:about="">
        <dc:format>image/svg+xml</dc:format>
        <dc:type
           rdf:resource="http://purl.org/dc/dcmitype/StillImage" />
        <dc:title />
      </cc:Work>
    </rdf:RDF>
  </metadata>
  <g
     inkscape:label="Layer 1"
     inkscape:groupmode="layer"
     id="layer1">
    <rect
       y="1038.7926"
       x="-7.9239535"
       height="4.375"
       width="5"
       id="hint-stretch-borders"
       style="opacity:0.875;fill:#008000;fill-opacity:1;stroke:none;display:inline" />
    <rect
       style="opacity:0.875;fill:#008000;fill-opacity:1;stroke:none;display:inline"
       id="hint-apply-color-scheme"
       width="5"
       height="4.375"
       x="-9.57831"
       y="1047.4103"
       inkscape:label="#rect3178" />
    <g
       id="active-center">
      <path
         transform="matrix(0.11302084,0,0,0.11302084,15.42708,990.97541)"
         d="m 2.8571396,472.36218 a 68.571426,68.571426 0 1 1 -137.1428496,0 68.571426,68.571426 0 1 1 137.1428496,0 z"
         sodipodi:ry="68.571426"
         sodipodi:rx="68.571426"
         sodipodi:cy="472.36218"
         sodipodi:cx="-65.714287"
         id="path3024"
         style="fill:none;stroke:#000000;stroke-width:8.84792614;stroke-miterlimit:4;stroke-opacity:1;stroke-dasharray:none"
         sodipodi:type="arc" />
      <path
         id="path3894"
         d="m 7.0000002,1043.3622 -2e-7,-3 0,0 5,0 0,5 -3.0000001,0"
         style="fill:none;stroke:#000000;stroke-width:1;stroke-miterlimit:4;stroke-opacity:1"
         inkscape:connector-curvature="0" />
      <rect
         style="fill:none;stroke:#000000;stroke-width:1;stroke-miterlimit:4;stroke-opacity:1;stroke-dasharray:none"
         id="rect3804-7"
         width="5"
         height="5"
         x="4"
         y="1043.3622" />
    </g>
    <g
       transform="translate(18.681564,0.56620777)"
       id="inactive-center">
      <path
         transform="matrix(0.11302084,0,0,0.11302084,15.42708,990.97541)"
         d="m 2.8571396,472.36218 c 0,37.87096 -30.7004736,68.57143 -68.5714266,68.57143 -37.870953,0 -68.571423,-30.70047 -68.571423,-68.57143 0,-37.87095 30.70047,-68.57142 68.571423,-68.57142 37.870953,0 68.5714266,30.70047 68.5714266,68.57142 z"
         sodipodi:ry="68.571426"
         sodipodi:rx="68.571426"
         sodipodi:cy="472.36218"
         sodipodi:cx="-65.714287"
         id="path3024-4"
         style="fill:none;stroke:#787878;stroke-width:8.84792614000000022;stroke-miterlimit:4;stroke-opacity:1;stroke-dasharray:none"
         sodipodi:type="arc" />
      <path
         id="path3894-3"
         d="m 7.0000002,1043.3622 -2e-7,-3 0,0 5,0 0,5 -3.0000001,0"
         style="fill:none;stroke:#787878;stroke-width:1;stroke-miterlimit:4;stroke-opacity:1"
         inkscape:connector-curvature="0" />
      <rect
         style="fill:none;stroke:#787878;stroke-width:1;stroke-miterlimit:4;stroke-opacity:1;stroke-dasharray:none"
         id="rect3804-7-6"
         width="5"
         height="5"
         x="4"
         y="1043.3622" />
    </g>
    <g
       id="hover-center"
       transform="translate(0,-18)">
      <path
         transform="matrix(0.11302084,0,0,0.11302084,15.42708,990.97541)"
         d="m 2.8571396,472.36218 c 0,37.87096 -30.7004736,68.57143 -68.5714266,68.57143 -37.870953,0 -68.571423,-30.70047 -68.571423,-68.57143 0,-37.87095 30.70047,-68.57142 68.571423,-68.57142 37.870953,0 68.5714266,30.70047 68.5714266,68.57142 z"
         sodipodi:ry="68.571426"
         sodipodi:rx="68.571426"
         sodipodi:cy="472.36218"
         sodipodi:cx="-65.714287"
         id="path3024-1"
         style="fill:#00ffff;stroke:#000000;stroke-width:8.84792614000000022;stroke-miterlimit:4;stroke-opacity:1;stroke-dasharray:none;fill-opacity:1"
         sodipodi:type="arc" />
      <path
         id="path3894-8"
         d="m 7.0000002,1043.3622 -2e-7,-3 0,0 5,0 0,5 -3.0000001,0"
         style="fill:none;stroke:#000000;stroke-width:2;stroke-miterlimit:4;stroke-opacity:1;stroke-dasharray:none"
         inkscape:connector-curvature="0" />
      <rect
         style="fill:none;stroke:#000000;stroke-width:2;stroke-miterlimit:4;stroke-opacity:1;stroke-dasharray:none"
         id="rect3804-7-7"
         width="5"
         height="5"
         x="4"
         y="1043.3622" />
    </g>
    <g
       transform="translate(18.681564,-17.4338)"
       id="hover-inactive-center">
      <path
         transform="matrix(0.11302084,0,0,0.11302084,15.42708,990.97541)"
         d="m 2.8571396,472.36218 c 0,37.87096 -30.7004736,68.57143 -68.5714266,68.57143 -37.870953,0 -68.571423,-30.70047 -68.571423,-68.57143 0,-37.87095 30.70047,-68.57142 68.571423,-68.57142 37.870953,0 68.5714266,30.70047 68.5714266,68.57142 z"
         sodipodi:ry="68.571426"
         sodipodi:rx="68.571426"
         sodipodi:cy="472.36218"
         sodipodi:cx="-65.714287"
         id="path3024-4-1"
         style="fill:#00ffff;stroke:#787878;stroke-width:8.84792614000000022;stroke-miterlimit:4;stroke-opacity:1;stroke-dasharray:none;fill-opacity:1"
         sodipodi:type="arc" />
      <path
         id="path3894-3-9"
         d="m 7.0000002,1043.3622 -2e-7,-3 0,0 5,0 0,5 -3.0000001,0"
         style="fill:none;stroke:#787878;stroke-width:2;stroke-miterlimit:4;stroke-opacity:1;stroke-dasharray:none"
         inkscape:connector-curvature="0" />
      <rect
         style="fill:none;stroke:#787878;stroke-width:2;stroke-miterlimit:4;stroke-opacity:1;stroke-dasharray:none"
         id="rect3804-7-6-5"
         width="5"
         height="5"
         x="4"
         y="1043.3622" />
    </g>
    <g
       id="pressed-center">
      <path
         transform="matrix(0.11302084,0,0,0.11302084,15.42708,954.97541)"
         d="m 2.8571396,472.36218 a 68.571426,68.571426 0 1 1 -137.1428496,0 68.571426,68.571426 0 1 1 137.1428496,0 z"
         sodipodi:ry="68.571426"
         sodipodi:rx="68.571426"
         sodipodi:cy="472.36218"
         sodipodi:cx="-65.714287"
         id="path3024-7"
         style="fill:none;stroke:#000000;stroke-width:8.84792614;stroke-miterlimit:4;stroke-opacity:1;stroke-dasharray:none"
         sodipodi:type="arc" />
      <path
         id="path3894-0"
         d="m 7.0000002,1007.3622 -2e-7,-3 0,0 5,0 0,5 -3.0000001,0"
         style="fill:none;stroke:#000000;stroke-width:2;stroke-miterlimit:4;stroke-opacity:1;stroke-dasharray:none"
         inkscape:connector-curvature="0" />
      <path
         sodipodi:type="arc"
         style="opacity:0.25000000000000000;fill:#000000;fill-opacity:1;stroke:none;stroke-width:8.84792614000000022;stroke-miterlimit:4;stroke-opacity:1;stroke-dasharray:none"
         id="path3024-7-5"
         sodipodi:cx="-65.714287"
         sodipodi:cy="472.36218"
         sodipodi:rx="68.571426"
         sodipodi:ry="68.571426"
         d="m 2.8571396,472.36218 a 68.571426,68.571426 0 1 1 -137.1428496,0 68.571426,68.571426 0 1 1 137.1428496,0 z"
         transform="matrix(0.11302084,0,0,0.11302084,15.42708,954.97541)" />
      <rect
         style="fill:none;stroke:#000000;stroke-width:2;stroke-miterlimit:4;stroke-opacity:1;stroke-dasharray:none"
         id="rect3804-7-9"
         width="5"
         height="5"
         x="4"
         y="1007.3622" />
    </g>
    <g
       id="pressed-inactive-center">
      <path
         sodipodi:type="arc"
         style="opacity:0.25;fill:#000000;fill-opacity:1;stroke:none"
         id="path3024-4-0-3"
         sodipodi:cx="-65.714287"
         sodipodi:cy="472.36218"
         sodipodi:rx="68.571426"
         sodipodi:ry="68.571426"
         d="m 2.8571396,472.36218 a 68.571426,68.571426 0 1 1 -137.1428496,0 68.571426,68.571426 0 1 1 137.1428496,0 z"
         transform="matrix(0.11302084,0,0,0.11302084,34.108644,955.54161)" />
      <path
         transform="matrix(0.11302084,0,0,0.11302084,34.108644,955.54161)"
         d="m 2.8571396,472.36218 a 68.571426,68.571426 0 1 1 -137.1428496,0 68.571426,68.571426 0 1 1 137.1428496,0 z"
         sodipodi:ry="68.571426"
         sodipodi:rx="68.571426"
         sodipodi:cy="472.36218"
         sodipodi:cx="-65.714287"
         id="path3024-4-0"
         style="fill:none;stroke:#787878;stroke-width:8.84792614;stroke-miterlimit:4;stroke-opacity:1;stroke-dasharray:none"
         sodipodi:type="arc" />
      <path
         id="path3894-3-8"
         d="m 25.681564,1007.9284 0,-3 0,0 5,0 0,5 -3,0"
         style="fill:none;stroke:#787878;stroke-width:2;stroke-miterlimit:4;stroke-opacity:1;stroke-dasharray:none"
         inkscape:connector-curvature="0" />
      <rect
         style="fill:none;stroke:#787878;stroke-width:2;stroke-miterlimit:4;stroke-opacity:1;stroke-dasharray:none"
         id="rect3804-7-6-0"
         width="5"
         height="5"
         x="22.681564"
         y="1007.9284" />
    </g>
    <g
       id="deactivated-center"
       transform="translate(0,-54)">
      <path
         transform="matrix(0.11302084,0,0,0.11302084,15.42708,990.97541)"
         d="m 2.8571396,472.36218 c 0,37.87096 -30.7004736,68.57143 -68.5714266,68.57143 -37.870953,0 -68.571423,-30.70047 -68.571423,-68.57143 0,-37.87095 30.70047,-68.57142 68.571423,-68.57142 37.870953,0 68.5714266,30.70047 68.5714266,68.57142 z"
         sodipodi:ry="68.571426"
         sodipodi:rx="68.571426"
         sodipodi:cy="472.36218"
         sodipodi:cx="-65.714287"
         id="path3024-0"
         style="fill:none;stroke:#000000;stroke-width:4.42396287;stroke-miterlimit:4;stroke-opacity:1;stroke-dasharray:none"
         sodipodi:type="arc" />
      <path
         id="path3894-6"
         d="m 7.0000002,1043.3622 -2e-7,-3 0,0 5,0 0,5 -3.0000001,0"
         style="fill:none;stroke:#000000;stroke-width:0.5;stroke-miterlimit:4;stroke-opacity:1;stroke-dasharray:none"
         inkscape:connector-curvature="0" />
      <rect
         style="fill:none;stroke:#000000;stroke-width:0.5;stroke-miterlimit:4;stroke-opacity:1;stroke-dasharray:none"
         id="rect3804-7-0"
         width="5"
         height="5"
         x="4"
         y="1043.3622" />
    </g>
    <g
       transform="translate(18.681564,-53.4338)"
       id="deactivated-inactive-center">
      <path
         transform="matrix(0.11302084,0,0,0.11302084,15.42708,990.97541)"
         d="m 2.8571396,472.36218 c 0,37.87096 -30.7004736,68.57143 -68.5714266,68.57143 -37.870953,0 -68.571423,-30.70047 -68.571423,-68.57143 0,-37.87095 30.70047,-68.57142 68.571423,-68.57142 37.870953,0 68.5714266,30.70047 68.5714266,68.57142 z"
         sodipodi:ry="68.571426"
         sodipodi:rx="68.571426"
         sodipodi:cy="472.36218"
         sodipodi:cx="-65.714287"
         id="path3024-4-9"
         style="fill:none;stroke:#787878;stroke-width:4.42396287;stroke-miterlimit:4;stroke-opacity:1;stroke-dasharray:none"
         sodipodi:type="arc" />
      <path
         id="path3894-3-7"
         d="m 7.0000002,1043.3622 -2e-7,-3 0,0 5,0 0,5 -3.0000001,0"
         style="fill:none;stroke:#787878;stroke-width:0.5;stroke-miterlimit:4;stroke-opacity:1;stroke-dasharray:none"
         inkscape:connector-curvature="0" />
      <rect
         style="fill:none;stroke:#787878;stroke-width:0.5;stroke-miterlimit:4;stroke-opacity:1;stroke-dasharray:none"
         id="rect3804-7-6-1"
         width="5"
         height="5"
         x="4"
         y="1043.3622" />
    </g>
  </g>
</svg>
